<svg width="40.000000" height="40.000000" viewBox="0 0 40 40" fill="none" xmlns="http://www.w3.org/2000/svg" xmlns:xlink="http://www.w3.org/1999/xlink">
	<desc>
			Created with Pixso.
	</desc>
	<defs/>
	<path d="M20 0C8.9541 0 0 8.9541 0 20C0 31.0459 8.9541 40 20 40C31.0459 40 40 31.0459 40 20C40 8.9541 31.0459 0 20 0ZM22.085 20.8789L22.085 31.7598L17.583 31.7598L17.583 20.8789L15.333 20.8789L15.333 17.1289L17.583 17.1289L17.583 14.8779C17.583 11.8193 18.8525 10 22.4609 10L25.4648 10L25.4648 13.75L23.5869 13.75C22.1826 13.75 22.0898 14.2744 22.0898 15.252L22.085 17.1289L25.4863 17.1289L25.0879 20.8789L22.085 20.8789Z" clip-rule="evenodd" fill="#5D71DD" fill-opacity="1.000000" fill-rule="evenodd"/>
</svg>
