<svg width="40.000000" height="40.000000" viewBox="0 0 40 40" fill="none" xmlns="http://www.w3.org/2000/svg" xmlns:xlink="http://www.w3.org/1999/xlink">
	<desc>
			Created with Pixso.
	</desc>
	<defs/>
	<path d="M20 0C8.9541 0 0 8.9541 0 20C0 31.0459 8.9541 40 20 40C31.0459 40 40 31.0459 40 20C40 8.9541 31.0459 0 20 0ZM15.6025 9.39746C16.7402 9.3457 17.1035 9.33301 19.998 9.33301L20.001 9.33301C22.8955 9.33301 23.2578 9.3457 24.3955 9.39746C25.5312 9.4502 26.3066 9.62988 26.9863 9.89355C27.6885 10.166 28.2822 10.5303 28.876 11.123C29.4688 11.7158 29.833 12.3115 30.1064 13.0127C30.3691 13.6914 30.5488 14.4658 30.6025 15.6016C30.6533 16.7393 30.667 17.1035 30.667 20C30.667 22.8975 30.6533 23.2598 30.6025 24.3975C30.5488 25.5322 30.3691 26.3076 30.1064 26.9863C29.833 27.6875 29.4688 28.2832 28.876 28.876C28.2832 29.4688 27.6885 29.834 26.9873 30.1064C26.3086 30.3711 25.5322 30.5508 24.3975 30.6025C23.2588 30.6543 22.8965 30.667 20 30.667C17.1025 30.667 16.7393 30.6543 15.6016 30.6025C14.4668 30.5508 13.6914 30.3711 13.0127 30.1064C12.3115 29.834 11.7158 29.4688 11.124 28.876C10.5303 28.2832 10.166 27.6875 9.89355 26.9863C9.62988 26.3076 9.4502 25.5332 9.39746 24.3975C9.34668 23.2598 9.33301 22.8975 9.33301 20C9.33301 17.1035 9.34668 16.7393 9.39746 15.6016C9.44824 14.4668 9.62891 13.6914 9.89355 13.0127C10.166 12.3115 10.5312 11.7158 11.124 11.123C11.7168 10.5303 12.3125 10.166 13.0137 9.89355C13.6924 9.62988 14.4668 9.4502 15.6025 9.39746Z" clip-rule="evenodd" fill="#5D71DD" fill-opacity="1.000000" fill-rule="evenodd"/>
	<path d="M19.6455 11.2559C19.4297 11.2559 19.2305 11.2549 19.0449 11.2559L19.0449 11.2529C17.0566 11.2549 16.6748 11.2686 15.6914 11.3125C14.6514 11.3604 14.0859 11.5342 13.71 11.6807C13.2129 11.874 12.8574 12.1055 12.4834 12.4785C12.1104 12.8525 11.8789 13.208 11.6855 13.7061C11.5391 14.082 11.3662 14.6465 11.3184 15.6865C11.2666 16.8105 11.2568 17.1465 11.2568 19.9951C11.2568 22.8438 11.2666 23.1816 11.3184 24.3057C11.3652 25.3457 11.5391 25.9102 11.6855 26.2861C11.8789 26.7842 12.1104 27.1387 12.4834 27.5117C12.8574 27.8848 13.2129 28.1162 13.71 28.3096C14.0869 28.4551 14.6514 28.6289 15.6914 28.6777C16.8154 28.7285 17.1533 28.7393 20.001 28.7393C22.8496 28.7393 23.1875 28.7285 24.3115 28.6777C25.3516 28.6299 25.917 28.4561 26.292 28.3096C26.79 28.1162 27.1445 27.8857 27.5176 27.5117C27.8916 27.1387 28.123 26.7842 28.3164 26.2871C28.4619 25.9111 28.6357 25.3467 28.6836 24.3066C28.7344 23.1826 28.7461 22.8447 28.7461 19.998C28.7461 17.1514 28.7344 16.8135 28.6836 15.6885C28.6357 14.6484 28.4619 14.084 28.3164 13.709C28.1221 13.2109 27.8916 12.8555 27.5176 12.4824C27.1445 12.1084 26.79 11.8779 26.292 11.6846C25.916 11.5381 25.3516 11.3643 24.3115 11.3174C23.1865 11.2656 22.8496 11.2559 20.001 11.2559C19.8779 11.2559 19.7598 11.2559 19.6455 11.2559ZM25.6953 13.0273C24.9883 13.0273 24.415 13.6006 24.415 14.3066C24.415 15.0137 24.9883 15.5869 25.6953 15.5869C26.4023 15.5869 26.9756 15.0137 26.9756 14.3066C26.9756 13.6006 26.4023 13.0273 25.6953 13.0273L25.6953 13.0273ZM14.5234 20.001C14.5234 16.9756 16.9766 14.5234 20.001 14.5234C23.0264 14.5234 25.4785 16.9756 25.4785 20.001C25.4785 23.0264 23.0264 25.4775 20.001 25.4775C16.9766 25.4775 14.5234 23.0264 14.5234 20.001Z" clip-rule="evenodd" fill="#5D71DD" fill-opacity="1.000000" fill-rule="evenodd"/>
	<path d="M20 16.44C21.96 16.44 23.55 18.03 23.55 20C23.55 21.96 21.96 23.55 20 23.55C18.03 23.55 16.44 21.96 16.44 20C16.44 18.03 18.03 16.44 20 16.44L20 16.44Z" fill="#5D71DD" fill-opacity="1.000000" fill-rule="evenodd"/>
</svg>
