<svg width="10.000000" height="10.000000" viewBox="0 0 10 10" fill="none" xmlns="http://www.w3.org/2000/svg" xmlns:xlink="http://www.w3.org/1999/xlink">
	<desc>
			Created with Pixso.
	</desc>
	<defs>
		<clipPath id="clip2_456">
			<rect rx="-0.500000" width="9.000000" height="9.000000" transform="translate(0.500000 0.500000)" fill="white" fill-opacity="0"/>
		</clipPath>
	</defs>
	<rect rx="-0.500000" width="9.000000" height="9.000000" transform="translate(0.500000 0.500000)" fill="#FFFFFF" fill-opacity="0"/>
	<g clip-path="url(#clip2_456)">
		<path d="M0.14 0.83C-0.05 0.64 -0.05 0.33 0.14 0.14C0.33 -0.05 0.64 -0.05 0.83 0.14L4.99 4.31L9.16 0.14C9.35 -0.05 9.66 -0.05 9.85 0.14C10.04 0.33 10.04 0.64 9.85 0.83L5.69 4.99L9.85 9.16C10.04 9.35 10.04 9.66 9.85 9.85C9.66 10.04 9.35 10.04 9.16 9.85L4.99 5.69L0.83 9.85C0.64 10.04 0.33 10.04 0.14 9.85C-0.05 9.66 -0.05 9.35 0.14 9.16L4.3 4.99L0.14 0.83Z" fill="#2F2222" fill-opacity="1.000000" fill-rule="nonzero"/>
	</g>
</svg>
