<svg width="14.000000" height="14.000000" viewBox="0 0 14 14" fill="none" xmlns="http://www.w3.org/2000/svg" xmlns:xlink="http://www.w3.org/1999/xlink">
	<desc>
			Created with Pixso.
	</desc>
	<defs>
		<clipPath id="clip2_116">
			<rect rx="-0.500000" width="13.000000" height="13.000000" transform="translate(0.500000 0.500000)" fill="white" fill-opacity="0"/>
		</clipPath>
	</defs>
	<rect rx="-0.500000" width="13.000000" height="13.000000" transform="translate(0.500000 0.500000)" fill="#FFFFFF" fill-opacity="0"/>
	<g clip-path="url(#clip2_116)">
		<path d="M13.61 10.27L11.66 8.32C10.96 7.62 9.78 7.9 9.5 8.8C9.29 9.43 8.59 9.78 7.96 9.64C6.57 9.29 4.68 7.48 4.33 6.01C4.12 5.39 4.54 4.69 5.17 4.48C6.08 4.2 6.36 3.01 5.66 2.32L3.71 0.36C3.15 -0.13 2.31 -0.13 1.82 0.36L0.5 1.69C-0.83 3.08 0.64 6.78 3.91 10.06C7.19 13.34 10.89 14.87 12.29 13.48L13.61 12.15C14.1 11.59 14.1 10.76 13.61 10.27Z" fill="#5D71DD" fill-opacity="1.000000" fill-rule="nonzero"/>
	</g>
</svg>
