<svg width="14.000000" height="14.000000" viewBox="0 0 14 14" fill="none" xmlns="http://www.w3.org/2000/svg" xmlns:xlink="http://www.w3.org/1999/xlink">
	<desc>
			Created with Pixso.
	</desc>
	<defs>
		<clipPath id="clip2_326">
			<rect rx="-0.500000" width="13.000000" height="13.000000" transform="translate(0.500000 0.500000)" fill="white" fill-opacity="0"/>
		</clipPath>
	</defs>
	<rect rx="-0.500000" width="13.000000" height="13.000000" transform="translate(0.500000 0.500000)" fill="#FFFFFF" fill-opacity="0"/>
	<g clip-path="url(#clip2_326)">
		<path d="M7 0C4.12 0 1.77 2.34 1.77 5.22C1.77 9.51 6.48 13.7 6.68 13.87C6.77 13.96 6.88 14 7 14C7.11 14 7.22 13.96 7.31 13.87C7.51 13.7 12.22 9.51 12.22 5.22C12.22 2.34 9.87 0 7 0ZM7 3.75C7.79 3.75 8.45 4.41 8.45 5.22C8.45 6.03 7.79 6.68 7 6.68C6.2 6.68 5.54 6.03 5.54 5.22C5.54 4.41 6.2 3.75 7 3.75Z" fill="#5D71DD" fill-opacity="1.000000" fill-rule="nonzero"/>
	</g>
</svg>
