<svg width="10.000000" height="10.000000" viewBox="0 0 10 10" fill="none" xmlns="http://www.w3.org/2000/svg" xmlns:xlink="http://www.w3.org/1999/xlink">
	<desc>
			Created with Pixso.
	</desc>
	<defs>
		<clipPath id="clip2_655">
			<rect rx="-0.500000" width="9.000000" height="9.000000" transform="matrix(-1 0 0 1 10.5 0.5)" fill="white" fill-opacity="0"/>
		</clipPath>
	</defs>
	<rect rx="-0.500000" width="9.000000" height="9.000000" transform="matrix(-1 0 0 1 10.5 0.5)" fill="#FFFFFF" fill-opacity="0"/>
	<g clip-path="url(#clip2_655)">
		<path d="M2.41 4.72L7.03 0.11C7.19 -0.04 7.43 -0.04 7.58 0.11C7.73 0.26 7.73 0.51 7.58 0.66L3.23 5L7.58 9.33C7.73 9.48 7.73 9.73 7.58 9.88C7.51 9.96 7.41 10 7.31 10C7.21 10 7.11 9.96 7.03 9.88L2.41 5.27C2.34 5.2 2.29 5.1 2.29 5C2.29 4.89 2.34 4.79 2.41 4.72Z" fill="#5D71DD" fill-opacity="1.000000" fill-rule="nonzero"/>
	</g>
</svg>
