<svg width="20.000000" height="20.000000" viewBox="0 0 20 20" fill="none" xmlns="http://www.w3.org/2000/svg" xmlns:xlink="http://www.w3.org/1999/xlink">
	<desc>
			Created with Pixso.
	</desc>
	<defs>
		<clipPath id="clip2_447">
			<rect rx="-0.500000" width="19.000000" height="19.000000" transform="translate(0.500000 0.500000)" fill="white" fill-opacity="0"/>
		</clipPath>
	</defs>
	<rect rx="-0.500000" width="19.000000" height="19.000000" transform="translate(0.500000 0.500000)" fill="#FFFFFF" fill-opacity="0"/>
	<g clip-path="url(#clip2_447)">
		<path d="M19.87 18.69L14.06 12.88C15.16 11.52 15.83 9.79 15.83 7.91C15.83 3.55 12.28 0 7.91 0C3.55 0 0 3.55 0 7.91C0 12.28 3.55 15.83 7.91 15.83C9.79 15.83 11.52 15.16 12.88 14.06L18.69 19.87C18.86 20.04 19.12 20.04 19.28 19.87L19.87 19.28C20.04 19.12 20.04 18.86 19.87 18.69ZM7.91 14.16C4.47 14.16 1.66 11.36 1.66 7.91C1.66 4.47 4.47 1.66 7.91 1.66C11.36 1.66 14.16 4.47 14.16 7.91C14.16 11.36 11.36 14.16 7.91 14.16Z" fill="#FFFFFF" fill-opacity="1.000000" fill-rule="nonzero"/>
	</g>
</svg>
