<svg width="40.000000" height="40.000000" viewBox="0 0 40 40" fill="none" xmlns="http://www.w3.org/2000/svg" xmlns:xlink="http://www.w3.org/1999/xlink">
	<desc>
			Created with Pixso.
	</desc>
	<defs/>
	<path d="M20 0C8.9541 0 0 8.9541 0 20C0 31.0459 8.9541 40 20 40C31.0459 40 40 31.0459 40 20C40 8.9541 31.0459 0 20 0ZM19.4434 16.9482L19.4014 16.2559C19.2754 14.4629 20.3799 12.8242 22.1289 12.1885C22.7725 11.9629 23.8633 11.9346 24.5771 12.1318C24.8574 12.2168 25.3887 12.499 25.7666 12.7539L26.4521 13.2197L27.207 12.9795C27.627 12.8525 28.1865 12.6406 28.4385 12.499C28.6758 12.3721 28.8857 12.3018 28.8857 12.3438C28.8857 12.584 28.3682 13.4033 27.9346 13.8555C27.3467 14.4912 27.5146 14.5469 28.7041 14.124C29.418 13.8838 29.4316 13.8838 29.292 14.1523C29.208 14.293 28.7744 14.7871 28.3125 15.2393C27.5293 16.0166 27.4873 16.1006 27.4873 16.751C27.4873 17.7529 27.0117 19.8438 26.5361 20.9873C25.6543 23.1348 23.7656 25.3516 21.877 26.4678C19.2188 28.0352 15.6797 28.4307 12.7002 27.5127C11.707 27.2021 10 26.4111 10 26.2695C10 26.2275 10.5176 26.1709 11.1475 26.1562C12.4619 26.1289 13.7773 25.7617 14.8965 25.1113L15.6514 24.6592L14.7842 24.3633C13.5537 23.9395 12.4482 22.9648 12.168 22.0469C12.084 21.75 12.1123 21.7363 12.8955 21.7363L13.707 21.7217L13.0215 21.3975C12.21 20.9873 11.4688 20.2959 11.1055 19.5898C10.8398 19.0811 10.5039 17.7959 10.6016 17.6973C10.6299 17.6543 10.9229 17.7393 11.2588 17.8525C12.2246 18.2051 12.3506 18.1201 11.791 17.5273C10.7412 16.4541 10.4199 14.8584 10.9229 13.3467L11.1611 12.6689L12.084 13.5869C13.9727 15.4375 16.1973 16.5391 18.7432 16.8633L19.4434 16.9482Z" clip-rule="evenodd" fill="#5D71DD" fill-opacity="1.000000" fill-rule="evenodd"/>
</svg>
