<svg width="40.000000" height="40.000000" viewBox="0 0 40 40" fill="none" xmlns="http://www.w3.org/2000/svg" xmlns:xlink="http://www.w3.org/1999/xlink">
	<desc>
			Created with Pixso.
	</desc>
	<defs/>
	<path id="Combined Shape" d="M20 0C8.9541 0 0 8.9541 0 20C0 31.0459 8.9541 40 20 40C31.0459 40 40 31.0459 40 20C40 8.9541 31.0459 0 20 0ZM21.6289 26.3135C21.4316 26.5215 21.0459 26.5635 21.0459 26.5635L19.7715 26.5635C19.7715 26.5635 16.958 26.7295 14.4805 24.1973C11.7773 21.4355 9.3916 15.9551 9.3916 15.9551C9.3916 15.9551 9.25391 15.5947 9.40234 15.4219C9.57031 15.2266 10.0293 15.2139 10.0293 15.2139L13.0762 15.1943C13.0762 15.1943 13.3633 15.2412 13.5693 15.3896C13.7393 15.5117 13.834 15.7402 13.834 15.7402C13.834 15.7402 14.3262 16.9639 14.9785 18.0693C16.2529 20.2295 16.8457 20.7021 17.2773 20.4707C17.9072 20.1338 17.7188 17.417 17.7188 17.417C17.7188 17.417 17.7305 16.4316 17.4014 15.9922C17.1475 15.6523 16.667 15.5527 16.4551 15.5254C16.2832 15.5029 16.5645 15.1113 16.9297 14.9365C17.4785 14.6729 18.4473 14.6582 19.5918 14.6689C20.4834 14.6787 20.7402 14.7324 21.0889 14.8154C21.8975 15.0068 21.873 15.6211 21.8184 16.9463C21.8018 17.3428 21.7832 17.8027 21.7832 18.334C21.7832 18.4531 21.7793 18.5801 21.7754 18.7109C21.7568 19.3906 21.7354 20.168 22.1904 20.457C22.4248 20.6045 22.9951 20.4785 24.4238 18.0986C25.1006 16.9697 25.6084 15.6436 25.6084 15.6436C25.6084 15.6436 25.7197 15.4062 25.8916 15.3057C26.0684 15.2021 26.3057 15.2334 26.3057 15.2334L29.5137 15.2139C29.5137 15.2139 30.4775 15.1006 30.6328 15.5283C30.7969 15.9766 30.2734 17.0225 28.9629 18.7373C27.7197 20.3643 27.1143 20.9629 27.1699 21.4932C27.2109 21.8799 27.6035 22.2305 28.3584 22.917C30.0645 24.4717 30.418 25.2285 30.4766 25.3232C31.1826 26.4736 29.6934 26.5635 29.6934 26.5635L26.8438 26.6025C26.8438 26.6025 26.2324 26.7207 25.4268 26.1787C25.0049 25.8945 24.5918 25.4297 24.1992 24.9883C23.5996 24.3135 23.0459 23.6895 22.5723 23.8369C21.7783 24.085 21.8027 25.7637 21.8027 25.7637C21.8027 25.7637 21.8086 26.123 21.6289 26.3135Z" clip-rule="evenodd" fill="#5D71DD" fill-opacity="1.000000" fill-rule="evenodd"/>
</svg>
